<?xml version="1.0" encoding="UTF-8"?>
<svg id="Calque_2" data-name="Calque 2" xmlns="http://www.w3.org/2000/svg" viewBox="0 0 31.21 31.06">
  <defs>
    <style>
      .cls-1 {
        fill: #eb6131;
      }

      .cls-1, .cls-2 {
        stroke-width: 0px;
      }

      .cls-2 {
        fill: #273f7a;
      }
    </style>
  </defs>
  <g id="Calque_1-2" data-name="Calque 1">
    <path class="cls-2" d="m15.66,20.7c.02-.2.01-.4.01-.6,0-4.08,0-8.17,0-12.25,0-.02,0-.04,0-.06,0-.13.02-.11.11-.1.22.02.45.03.67.06.3.05.6.12.89.22.38.12.75.3,1.09.5.22.13.42.28.62.44.31.25.59.52.84.83.39.49.69,1.03.89,1.63.2.59.31,1.19.31,1.81,0,.87,0,1.74,0,2.61,0,1.79,0,3.57,0,5.36,0,.14,0,.28,0,.43,0,.16-.03.32-.06.47-.04.18-.07.36-.11.54-.09.42-.23.82-.37,1.23-.36,1.06-.87,2.04-1.53,2.95-.1.14-.22.27-.33.4-.07.07-.11.16-.17.23-.35.44-.74.83-1.17,1.19-.37.3-.74.59-1.14.85-1.07.68-2.22,1.16-3.46,1.42-1,.21-2.01.25-3.02.21-.52-.02-1.04-.06-1.54-.16-.63-.12-1.26-.26-1.87-.47-.09-.03-.17-.07-.25-.11.03,0,.07,0,.1.01.35.08.7.13,1.06.15.72.05,1.43-.01,2.14-.19.4-.1.79-.23,1.17-.39.38-.16.74-.36,1.08-.6.34-.24.67-.5.97-.79.85-.84,1.54-1.81,2.08-2.88.36-.71.61-1.47.78-2.25.11-.49.18-.98.21-1.48.03-.4.05-.81.02-1.21Z"/>
    <path class="cls-1" d="m14.76,2.17c.06-.02.13-.01.19-.01,1.58.01,3.16.01,4.74,0,1.63,0,3.26,0,4.89,0,.03,0,.06,0,.09,0,.04,0,.05-.02.05-.06,0-.03,0-.06,0-.09,0-.45,0-.91,0-1.36,0-.21,0-.43,0-.65.06,0,.11.05.16.09.72.54,1.45,1.08,2.17,1.63.38.29.76.58,1.15.86.31.23.63.46.94.69.32.23.64.47.95.71.33.25.66.5,1,.74.16.11.16.18,0,.29-.19.12-.36.27-.54.4-.16.11-.32.24-.48.35-.27.18-.52.38-.78.57-.17.12-.34.24-.51.36-.13.09-.25.17-.37.27-.16.14-.34.26-.51.39-.52.39-1.04.77-1.57,1.16-.29.22-.58.45-.89.64-.07.05-.14.1-.21.16-.15.13-.32.24-.49.35-.04-.02-.02-.06-.02-.09,0-.58,0-1.16,0-1.75,0-.04,0-.08,0-.12,0-.05-.02-.07-.07-.07-.03,0-.06,0-.09,0-1.53-.02-3.06-.02-4.59-.02-.85,0-1.7,0-2.55,0-.52,0-1.04.02-1.56,0-2.02-.04-4.04-.02-6.06-.01,0-.02,0-.05-.01-.07-.04-.87.12-1.69.48-2.48.33-.71.8-1.31,1.41-1.79.56-.44,1.19-.74,1.88-.92.34-.09.69-.13,1.04-.19.05,0,.11-.03.17,0Z"/>
    <path class="cls-1" d="m15.66,20.7c.04.41.01.81-.02,1.21-.03.5-.1.99-.21,1.48-.18.78-.42,1.53-.78,2.25-.54,1.07-1.23,2.03-2.08,2.88-.3.29-.63.55-.97.79-.34.23-.7.43-1.08.6-.38.16-.77.29-1.17.39-.7.17-1.41.24-2.14.19-.36-.02-.71-.08-1.06-.15-.03,0-.07-.02-.1-.01-.16-.04-.32-.11-.47-.19-.93-.47-1.79-1.04-2.59-1.72-.1-.08-.19-.17-.28-.25-.04-.04-.07-.05-.12,0-.1.12-.22.22-.34.33-.34.29-.65.61-.96.92-.03.03-.05.07-.12.07-.39-2.67-.78-5.33-1.18-8,.12-.02.23,0,.35.03.6.09,1.2.19,1.79.28.22.03.44.09.67.11.18.02.36.06.54.08.2.01.39.07.59.09.15.02.29.06.45.06.08,0,.16.02.24.04.22.05.46.02.67.12.26-.02.51.07.77.1.33.04.66.09.98.14.29.05.59.11.88.12.04,0,.09.01.13.02-.04.11-1.05,1.21-1.39,1.52,0,.04.03.06.06.08.27.27.57.5.89.72.19.13.39.23.59.33.3.15.61.26.93.35.14.04.28.06.42.07.34.03.67.03,1.01.03.36,0,.7-.08,1.05-.18.63-.18,1.21-.47,1.73-.86.35-.26.66-.57.95-.89.35-.39.61-.82.84-1.28.16-.33.28-.68.37-1.03.07-.27.15-.55.16-.83Z"/>
    <path class="cls-2" d="m14.76,2.17c-.06-.03-.11,0-.17,0-.35.06-.7.1-1.04.19-.69.19-1.32.48-1.88.92-.61.48-1.09,1.08-1.41,1.79-.36.79-.52,1.61-.48,2.48,0,.02,0,.05.01.07-.02.07-.01.14-.01.2.01.71-.23,1.33-.69,1.87-.33.4-.76.65-1.25.82-.29.1-.59.16-.9.16-.82,0-1.64,0-2.47,0-.03,0-.06,0-.09,0-.04,0-.05-.02-.05-.06,0-.03,0-.07,0-.1,0-1.69,0-3.38,0-5.08,0-.26,0-.52.05-.77.08-.47.29-.88.56-1.27.14-.2.31-.39.51-.54.37-.28.77-.49,1.22-.61.25-.07.5-.07.75-.07,2.28,0,4.56,0,6.84,0,.17,0,.33,0,.5,0Z"/>
  </g>
</svg>