<?xml version="1.0" encoding="UTF-8"?>
<svg id="Calque_2" data-name="Calque 2" xmlns="http://www.w3.org/2000/svg" viewBox="0 0 43.07 31.06">
  <defs>
    <style>
      .cls-1 {
        fill: #eb6131;
      }

      .cls-1, .cls-2 {
        stroke-width: 0px;
      }

      .cls-2 {
        fill: #273f7a;
      }
    </style>
  </defs>
  <g id="Calque_1-2" data-name="Calque 1">
    <g>
      <path class="cls-2" d="m15.66,20.7c.02-.2.01-.4.01-.6,0-4.08,0-8.17,0-12.25,0-.02,0-.04,0-.06,0-.13.02-.11.11-.1.22.02.45.03.67.06.3.05.6.12.89.22.38.12.75.3,1.09.5.22.13.42.28.62.44.31.25.59.52.84.83.39.49.69,1.03.89,1.63.2.59.31,1.19.31,1.81,0,.87,0,1.74,0,2.61,0,1.79,0,3.57,0,5.36,0,.14,0,.28,0,.43,0,.16-.03.32-.06.47-.04.18-.07.36-.11.54-.09.42-.23.82-.37,1.23-.36,1.06-.87,2.04-1.53,2.95-.1.14-.22.27-.33.4-.07.07-.11.16-.17.23-.35.44-.74.83-1.17,1.19-.37.3-.74.59-1.14.85-1.07.68-2.22,1.16-3.46,1.42-1,.21-2.01.25-3.02.21-.52-.02-1.04-.06-1.54-.16-.63-.12-1.26-.26-1.87-.47-.09-.03-.17-.07-.25-.11.03,0,.07,0,.1.01.35.08.7.13,1.06.15.72.05,1.43-.01,2.14-.19.4-.1.79-.23,1.17-.39.38-.16.74-.36,1.08-.6.34-.24.67-.5.97-.79.85-.84,1.54-1.81,2.08-2.88.36-.71.61-1.47.78-2.25.11-.49.18-.98.21-1.48.03-.4.05-.81.02-1.21Z"/>
      <path class="cls-1" d="m14.76,2.17c.06-.02.13-.01.19-.01,1.58.01,3.16.01,4.74,0,1.63,0,3.26,0,4.89,0,.03,0,.06,0,.09,0,.04,0,.05-.02.05-.06,0-.03,0-.06,0-.09,0-.45,0-.91,0-1.36,0-.21,0-.43,0-.65.06,0,.11.05.16.09.72.54,1.45,1.08,2.17,1.63.38.29.76.58,1.15.86.31.23.63.46.94.69.32.23.64.47.95.71.33.25.66.5,1,.74.16.11.16.18,0,.29-.19.12-.36.27-.54.4-.16.11-.32.24-.48.35-.27.18-.52.38-.78.57-.17.12-.34.24-.51.36-.13.09-.25.17-.37.27-.16.14-.34.26-.51.39-.52.39-1.04.77-1.57,1.16-.29.22-.58.45-.89.64-.07.05-.14.1-.21.16-.15.13-.32.24-.49.35-.04-.02-.02-.06-.02-.09,0-.58,0-1.16,0-1.75,0-.04,0-.08,0-.12,0-.05-.02-.07-.07-.07-.03,0-.06,0-.09,0-1.53-.02-3.06-.02-4.59-.02-.85,0-1.7,0-2.55,0-.52,0-1.04.02-1.56,0-2.02-.04-4.04-.02-6.06-.01,0-.02,0-.05-.01-.07-.04-.87.12-1.69.48-2.48.33-.71.8-1.31,1.41-1.79.56-.44,1.19-.74,1.88-.92.34-.09.69-.13,1.04-.19.05,0,.11-.03.17,0Z"/>
      <path class="cls-1" d="m15.66,20.7c.04.41.01.81-.02,1.21-.03.5-.1.99-.21,1.48-.18.78-.42,1.53-.78,2.25-.54,1.07-1.23,2.03-2.08,2.88-.3.29-.63.55-.97.79-.34.23-.7.43-1.08.6-.38.16-.77.29-1.17.39-.7.17-1.41.24-2.14.19-.36-.02-.71-.08-1.06-.15-.03,0-.07-.02-.1-.01-.16-.04-.32-.11-.47-.19-.93-.47-1.79-1.04-2.59-1.72-.1-.08-.19-.17-.28-.25-.04-.04-.07-.05-.12,0-.1.12-.22.22-.34.33-.34.29-.65.61-.96.92-.03.03-.05.07-.12.07-.39-2.67-.78-5.33-1.18-8,.12-.02.23,0,.35.03.6.09,1.2.19,1.79.28.22.03.44.09.67.11.18.02.36.06.54.08.2.01.39.07.59.09.15.02.29.06.45.06.08,0,.16.02.24.04.22.05.46.02.67.12.26-.02.51.07.77.1.33.04.66.09.98.14.29.05.59.11.88.12.04,0,.09.01.13.02-.04.11-1.05,1.21-1.39,1.52,0,.04.03.06.06.08.27.27.57.5.89.72.19.13.39.23.59.33.3.15.61.26.93.35.14.04.28.06.42.07.34.03.67.03,1.01.03.36,0,.7-.08,1.05-.18.63-.18,1.21-.47,1.73-.86.35-.26.66-.57.95-.89.35-.39.61-.82.84-1.28.16-.33.28-.68.37-1.03.07-.27.15-.55.16-.83Z"/>
      <path class="cls-2" d="m30.03,15.68s.05.05.08.06c.37.07.64.3.85.59.23.31.35.66.42,1.03.04.22.07.43.07.65,0,.53.02,1.06,0,1.58-.02.35-.1.69-.23,1.02-.16.4-.42.71-.76.95-.3.22-.64.35-1.01.43-.3.06-.59.07-.89.07-.81,0-1.62,0-2.44,0-.08,0-.17,0-.25-.01-.13,0-.2-.07-.24-.19-.02-.08-.03-.15-.03-.23,0-.55,0-1.11,0-1.66,0-3.04,0-6.08,0-9.13,0-.15,0-.3,0-.45,0-.22.15-.35.34-.37.04,0,.09,0,.13,0,.77,0,1.54,0,2.3,0,.4,0,.8.03,1.19.13.31.08.59.2.85.39.2.14.34.33.47.54.25.42.34.89.37,1.37.04.58.04,1.16-.08,1.74-.08.4-.24.76-.54,1.05-.16.15-.32.29-.53.35-.03,0-.05.04-.08.07Zm-2.54,2.79h0c0,.1,0,.21,0,.31,0,.4,0,.79,0,1.19,0,.26.12.41.4.4.27,0,.55,0,.82-.01.14,0,.28-.04.41-.11.28-.15.39-.4.42-.7.05-.54.03-1.07.02-1.61,0-.25-.04-.5-.14-.73-.08-.19-.21-.34-.4-.42-.12-.05-.25-.09-.38-.11-.25-.03-.51,0-.76-.02-.06,0-.13-.02-.18.02-.08.06-.14.13-.19.21-.01.02,0,.04,0,.05,0,.51,0,1.02,0,1.52Zm0-5.13c0,.44,0,.88,0,1.32,0,.06.03.09.06.13.1.1.21.17.36.17.2,0,.39,0,.59-.03.14-.02.27-.05.39-.12.31-.19.46-.48.48-.84.02-.42.01-.83,0-1.25,0-.19-.06-.38-.15-.55-.13-.25-.34-.38-.63-.39-.13,0-.26,0-.4,0-.15,0-.3,0-.45,0-.1,0-.25.16-.25.26,0,.43,0,.86,0,1.29Z"/>
      <path class="cls-2" d="m14.76,2.17c-.06-.03-.11,0-.17,0-.35.06-.7.1-1.04.19-.69.19-1.32.48-1.88.92-.61.48-1.09,1.08-1.41,1.79-.36.79-.52,1.61-.48,2.48,0,.02,0,.05.01.07-.02.07-.01.14-.01.2.01.71-.23,1.33-.69,1.87-.33.4-.76.65-1.25.82-.29.1-.59.16-.9.16-.82,0-1.64,0-2.47,0-.03,0-.06,0-.09,0-.04,0-.05-.02-.05-.06,0-.03,0-.07,0-.1,0-1.69,0-3.38,0-5.08,0-.26,0-.52.05-.77.08-.47.29-.88.56-1.27.14-.2.31-.39.51-.54.37-.28.77-.49,1.22-.61.25-.07.5-.07.75-.07,2.28,0,4.56,0,6.84,0,.17,0,.33,0,.5,0Z"/>
      <path class="cls-2" d="m40.03,14.35c.19-.77.43-1.51.64-2.26.18-.63.37-1.26.55-1.89.02-.06.03-.11.06-.16.06-.12.14-.2.3-.19.4,0,.8.01,1.2,0,.2,0,.34.14.28.37-.07.3-.17.58-.26.87-.6,1.83-1.21,3.65-1.82,5.48-.07.22-.11.44-.11.68,0,1.45,0,2.9,0,4.34,0,.09,0,.18,0,.26-.01.14-.09.22-.23.23-.34.02-.67,0-1.01,0-.16,0-.32,0-.48-.01-.11,0-.17-.06-.18-.17,0-.06,0-.12,0-.18,0-1.51,0-3.02,0-4.53,0-.17-.02-.34-.08-.5-.1-.28-.19-.57-.29-.86-.15-.46-.3-.93-.46-1.39-.14-.43-.3-.85-.43-1.28-.26-.82-.54-1.64-.8-2.46-.05-.17-.12-.34-.17-.51-.04-.15.08-.32.23-.33.03,0,.07,0,.1,0,.45,0,.91,0,1.36,0,.18,0,.24.04.29.21.11.36.22.72.32,1.08.29.98.57,1.97.86,2.96.03.09.05.18.13.26Z"/>
      <path class="cls-1" d="m34.62,26.04c.11-.36.22-.72.33-1.08.11-.35.21-.7.32-1.06.04-.14.09-.28.13-.41.04-.12.06-.13.19-.14.46,0,.92,0,1.38,0,.1,0,.15.05.19.13.06.11.09.23.13.35.15.48.3.96.45,1.45.07.21.13.42.19.63.01.05.02.09.06.13.05-.03.06-.08.07-.13.1-.34.2-.68.31-1.02.06-.2.12-.39.22-.57.27-.52.71-.8,1.27-.92.1-.02.19-.03.29-.05.08-.01.17-.01.25,0,.17.02.21.08.16.25-.05.17-.11.34-.16.5-.07.22-.13.44-.21.66-.1.25-.15.51-.24.76-.09.25-.17.51-.25.77-.08.26-.16.51-.25.77-.14.44-.29.89-.44,1.33-.02.06-.06.1-.13.1-.06,0-.13.01-.19.01-.45,0-.89,0-1.34,0-.02,0-.04,0-.06,0q-.16,0-.21-.15c-.24-.68-.44-1.38-.67-2.07-.03-.11-.07-.21-.13-.31-.07.07-.09.15-.12.24-.2.7-.44,1.38-.65,2.07-.07.22-.07.23-.31.23-.46,0-.92,0-1.38,0-.27,0-.22.01-.3-.23-.25-.77-.5-1.54-.74-2.32-.24-.75-.48-1.51-.72-2.26-.02-.06-.04-.12-.05-.18-.01-.1,0-.13.1-.13.48-.04.92.05,1.32.33.45.31.67.76.78,1.28.04.18.09.36.16.53.06.14.06.3.14.43.02.04.03.09.09.12Z"/>
      <path class="cls-2" d="m32.57,10.03c.28.04.56.07.81.21.51.28.88.68,1.01,1.26.04.16.05.32.05.48,0,1.72,0,3.43,0,5.15,0,.99,0,1.99,0,2.98,0,.08-.03.18.02.24.05.06.16.02.24.02.44,0,.88,0,1.32,0,.32,0,.61.12.87.3.4.28.61.67.66,1.16,0,.04,0,.08,0,.12q.01.13-.12.13c-.94,0-1.88,0-2.82,0-.55,0-1.1,0-1.64,0-.08,0-.17,0-.25-.01-.1,0-.15-.06-.17-.15,0-.04,0-.08,0-.12,0-3.88,0-7.76,0-11.64,0-.04,0-.08.01-.13Z"/>
      <path class="cls-2" d="m22.3,16.08c0-1.94,0-3.87-.02-5.81,0-.2.05-.24.25-.22.35.04.67.15.96.36.37.27.59.65.67,1.09.03.18.04.36.04.54,0,2.91,0,5.82,0,8.73,0,.4,0,.8,0,1.2,0,.1,0,.1-.11.1-.53,0-1.07.03-1.6,0-.03,0-.06,0-.09,0-.08,0-.1-.04-.1-.1,0-.05,0-.11,0-.16,0-.41,0-.82,0-1.23,0-1.5,0-2.99,0-4.49Z"/>
      <path class="cls-2" d="m29.22,28.99s-.02-.01-.03-.02c-.23-.32-.45-.65-.68-.97-.19-.26-.38-.52-.57-.79-.2-.29-.43-.56-.6-.86-.2-.35-.34-.73-.34-1.14,0-.68.26-1.25.77-1.71.41-.36.9-.54,1.45-.55.31,0,.61.05.9.18.86.4,1.31,1.08,1.35,2.02.02.41-.1.8-.32,1.16-.16.27-.35.52-.54.77-.21.27-.39.57-.59.84-.25.33-.47.69-.73,1.02-.02.02-.03.05-.07.06Zm0-2.45c.79-.01,1.36-.62,1.36-1.35,0-.77-.58-1.36-1.36-1.36-.77,0-1.36.58-1.36,1.38,0,.68.59,1.34,1.36,1.33Z"/>
      <path class="cls-1" d="m25.06,26.61c0,.56,0,1.12,0,1.69,0,.2.01.17-.17.18-.45,0-.9,0-1.35,0-.19,0-.17.02-.17-.18,0-1.09,0-2.18,0-3.27,0-.07,0-.14,0-.21,0-.08-.04-.11-.12-.11-.15,0-.3,0-.45,0-.26,0-.53,0-.79,0-.18,0-.18-.02-.13-.19.04-.13.08-.26.14-.38.25-.49.66-.74,1.2-.75.77-.02,1.55,0,2.32,0,.23,0,.47,0,.7,0,.06,0,.12,0,.18.01.14.02.19.08.16.22-.04.19-.1.38-.23.54-.16.2-.34.38-.58.49-.14.07-.29.07-.44.09-.28.04-.25-.03-.25.27,0,.55,0,1.11,0,1.66Z"/>
      <path class="cls-2" d="m28.41,25.17c0-.16,0-.31.11-.44.11-.14.24-.27.42-.33.17-.06.35-.08.52-.02.6.21.78.84.45,1.3-.18.26-.46.39-.77.35-.33-.04-.58-.22-.7-.55-.04-.1-.02-.2-.02-.3Z"/>
    </g>
  </g>
</svg>